<?xml version="1.0" encoding="utf-8"?>
<!-- Generator: Adobe Illustrator 14.0.0, SVG Export Plug-In  -->
<!DOCTYPE svg PUBLIC "-//W3C//DTD SVG 1.1//EN" "http://www.w3.org/Graphics/SVG/1.1/DTD/svg11.dtd" [
	<!ENTITY ns_flows "http://ns.adobe.com/Flows/1.0/">
]>
<svg version="1.1"
	 xmlns="http://www.w3.org/2000/svg" xmlns:xlink="http://www.w3.org/1999/xlink" xmlns:a="http://ns.adobe.com/AdobeSVGViewerExtensions/3.0/"
	 x="0px" y="0px" width="504px" height="108px" viewBox="0 0 504 108" enable-background="new 0 0 504 108" xml:space="preserve">
<defs>
</defs>
<rect y="36" opacity="0" fill="#C91E1D" width="36" height="36"/>
<rect y="72" opacity="0" fill="#C91E1D" width="36" height="36"/>
<rect x="359.999" y="72" opacity="0" fill="#C91E1D" width="36" height="36"/>
<rect x="144.006" y="72" opacity="0" fill="#C91E1D" width="36" height="36"/>
<rect x="216.009" y="72" opacity="0" fill="#C91E1D" width="36" height="36"/>
<rect x="288.011" y="72" opacity="0" fill="#C91E1D" width="36" height="36"/>
<rect x="432" y="72" opacity="0" fill="#C91E1D" width="36" height="36"/>
<rect x="36" y="36" opacity="0" fill="#C91E1D" width="36" height="36"/>
<rect x="72" y="36" opacity="0" fill="#C91E1D" width="36" height="36"/>
<rect x="108" y="36" opacity="0" fill="#C91E1D" width="36" height="36"/>
<rect x="144" y="36" opacity="0" fill="#C91E1D" width="36" height="36"/>
<rect x="180" y="36" opacity="0" fill="#C91E1D" width="36" height="36"/>
<rect x="360" opacity="0" fill="#C91E1D" width="36" height="36"/>
<text transform="matrix(0.9619 0 0 1 361.3472 26.1797)" fill="#FFFFFF" stroke="#FFFFFF" stroke-width="0.5" stroke-linecap="round" font-family="'NixieOne-Regular'" font-size="29.4857">A</text>
<text transform="matrix(0.9619 0 0 1 382.4478 26.1982)" fill="#FFFFFF" stroke="#FFFFFF" stroke-width="0.5" stroke-linecap="round" font-family="'NixieOne-Regular'" font-size="22.7003">a</text>
<line fill="#FFFFFF" stroke="#FFFFFF" stroke-width="1.4569" stroke-linecap="round" x1="363.542" y1="21.256" x2="393.272" y2="21.256"/>
<rect x="288" opacity="0" fill="#C91E1D" width="36" height="36"/>
<line fill="none" stroke="#FFFFFF" stroke-width="1.4569" stroke-linecap="round" x1="298.605" y1="13.518" x2="298.605" y2="5.547"/>
<line fill="none" stroke="#FFFFFF" stroke-width="1.4569" stroke-linecap="round" x1="313.388" y1="13.518" x2="313.388" y2="5.547"/>
<rect x="294.13" y="9.149" fill="none" stroke="#FFFFFF" stroke-width="1.4569" stroke-linecap="round" width="23.739" height="21.04"/>
<rect x="297.967" y="15.709" fill="none" stroke="#FFFFFF" stroke-width="1.4569" stroke-linecap="round" width="2.462" height="1.727"/>
<line fill="none" stroke="#FFFFFF" stroke-width="1.4569" stroke-linecap="round" x1="300.429" y1="16.574" x2="297.97" y2="16.574"/>
<rect x="304.364" y="15.709" fill="none" stroke="#FFFFFF" stroke-width="1.4569" stroke-linecap="round" width="2.452" height="1.727"/>
<line fill="none" stroke="#FFFFFF" stroke-width="1.4569" stroke-linecap="round" x1="306.821" y1="16.574" x2="304.36" y2="16.574"/>
<rect x="297.967" y="20.495" fill="none" stroke="#FFFFFF" stroke-width="1.4569" stroke-linecap="round" width="2.462" height="1.725"/>
<line fill="none" stroke="#FFFFFF" stroke-width="1.4569" stroke-linecap="round" x1="300.429" y1="21.357" x2="297.97" y2="21.357"/>
<rect x="304.364" y="20.495" fill="none" stroke="#FFFFFF" stroke-width="1.4569" stroke-linecap="round" width="2.452" height="1.725"/>
<line fill="none" stroke="#FFFFFF" stroke-width="1.4569" stroke-linecap="round" x1="306.821" y1="21.357" x2="304.36" y2="21.357"/>
<rect x="297.967" y="25.284" fill="none" stroke="#FFFFFF" stroke-width="1.4569" stroke-linecap="round" width="2.462" height="1.719"/>
<line fill="none" stroke="#FFFFFF" stroke-width="1.4569" stroke-linecap="round" x1="300.429" y1="26.145" x2="297.97" y2="26.145"/>
<rect x="304.364" y="25.284" fill="none" stroke="#FFFFFF" stroke-width="1.4569" stroke-linecap="round" width="2.452" height="1.719"/>
<line fill="none" stroke="#FFFFFF" stroke-width="1.4569" stroke-linecap="round" x1="306.821" y1="26.145" x2="304.36" y2="26.145"/>
<rect x="310.746" y="15.709" fill="none" stroke="#FFFFFF" stroke-width="1.4569" stroke-linecap="round" width="2.461" height="1.727"/>
<line fill="none" stroke="#FFFFFF" stroke-width="1.4569" stroke-linecap="round" x1="313.205" y1="16.574" x2="310.748" y2="16.574"/>
<rect x="310.746" y="20.495" fill="none" stroke="#FFFFFF" stroke-width="1.4569" stroke-linecap="round" width="2.461" height="1.725"/>
<line fill="none" stroke="#FFFFFF" stroke-width="1.4569" stroke-linecap="round" x1="313.205" y1="21.357" x2="310.748" y2="21.357"/>
<rect x="310.746" y="25.284" fill="none" stroke="#FFFFFF" stroke-width="1.4569" stroke-linecap="round" width="2.461" height="1.719"/>
<line fill="none" stroke="#FFFFFF" stroke-width="1.4569" stroke-linecap="round" x1="313.205" y1="26.145" x2="310.748" y2="26.145"/>
<rect opacity="0" fill="#C91E1D" width="36" height="36"/>
<line fill="none" stroke="#FFFFFF" stroke-width="1.4569" stroke-linecap="round" x1="30.22" y1="30.822" x2="21.775" y2="22.381"/>
<path fill="none" stroke="#FFFFFF" stroke-width="1.4569" stroke-linecap="round" d="M25.184,14.977
	c0,5.936-4.809,10.746-10.745,10.746c-5.934,0-10.741-4.811-10.741-10.746c0-5.934,4.807-10.74,10.741-10.74
	C20.375,4.236,25.184,9.043,25.184,14.977"/>
<rect x="216" opacity="0" fill="#C91E1D" width="36" height="36"/>
<path fill="none" stroke="#FFFFFF" stroke-width="1.4569" stroke-linecap="round" d="M234,3.955c-5.313,0-9.622,4.306-9.622,9.621
	c0,5.314,9.622,18.469,9.622,18.469s9.622-13.154,9.622-18.469C243.622,8.261,239.313,3.955,234,3.955 M234,15.852
	c-1.421,0-2.569-1.153-2.569-2.576c0-1.422,1.148-2.572,2.569-2.572s2.572,1.15,2.572,2.572
	C236.572,14.698,235.421,15.852,234,15.852"/>
<rect x="144" opacity="0" fill="#C91E1D" width="36" height="36"/>
<path fill="none" stroke="#FFFFFF" stroke-width="1.4569" stroke-linecap="round" d="M158.09,6.575h-7.896
	c-2.16,0-3.916,1.266-3.916,2.833v18.831c0,1.562,1.756,2.832,3.916,2.832h7.896c2.169,0,3.923-1.271,3.923-2.832V9.408
	C162.013,7.841,160.259,6.575,158.09,6.575"/>
<path fill="none" stroke="#FFFFFF" stroke-width="1.4569" stroke-linecap="round" d="M175.781,7.952h-8.505
	c-1.073,0-1.935,0.795-1.935,1.783v18.177c0,0.983,0.862,1.781,1.935,1.781h8.505c1.074,0,1.941-0.798,1.941-1.781V9.735
	C177.723,8.747,176.855,7.952,175.781,7.952"/>
<rect x="149.414" y="11.07" fill="none" stroke="#FFFFFF" stroke-width="1.4569" stroke-linecap="round" width="9.465" height="16.273"/>
<rect x="149.413" y="11.075" fill="none" stroke="#FFFFFF" stroke-width="1.4569" stroke-linecap="round" width="9.466" height="16.267"/>
<rect x="168.448" y="11.133" fill="none" stroke="#FFFFFF" stroke-width="1.4569" stroke-linecap="round" width="6.166" height="10.381"/>
<rect x="168.45" y="11.135" fill="none" stroke="#FFFFFF" stroke-width="1.4569" stroke-linecap="round" width="6.164" height="10.378"/>
<path fill="none" stroke="#FFFFFF" stroke-width="1.4569" stroke-linecap="round" d="M173.29,26.063
	c0,0.972-0.789,1.758-1.756,1.758c-0.973,0-1.761-0.786-1.761-1.758c0-0.971,0.788-1.758,1.761-1.758
	C172.501,24.305,173.29,25.092,173.29,26.063"/>
<rect x="72" opacity="0" fill="#C91E1D" width="36" height="36"/>
<path fill="none" stroke="#FFFFFF" stroke-width="1.4569" stroke-linecap="round" d="M78.943,22.174l6.192,6.918
	c0.782,0.873,2.055,0.998,2.859,0.277l9.895-8.855l3.395-6.053c0.8-0.716,0.074-2.836-0.708-3.709l-1.699-1.897
	c-0.782-0.874-2.812-1.835-3.612-1.12l-6.391,2.707l-9.895,8.855C78.176,20.018,78.161,21.301,78.943,22.174"/>
<path fill="none" stroke="#FFFFFF" stroke-width="1.4569" stroke-linecap="round" d="M94.39,12.002
	c0.791-0.71,2.005-0.642,2.709,0.146c0.708,0.791,0.642,2.006-0.149,2.713c-0.789,0.706-2.004,0.64-2.712-0.152
	C93.534,13.921,93.601,12.707,94.39,12.002"/>
<rect x="396" opacity="0" fill="#C91E1D" width="36" height="36"/>
<text transform="matrix(0.9619 0 0 1 397.3472 26.1797)" fill="#595758" stroke="#595758" stroke-width="0.5" stroke-linecap="round" font-family="'NixieOne-Regular'" font-size="29.4857">A</text>
<text transform="matrix(0.9619 0 0 1 418.4478 26.1982)" fill="#595758" stroke="#595758" stroke-width="0.5" stroke-linecap="round" font-family="'NixieOne-Regular'" font-size="22.7003">a</text>
<line fill="#FFFFFF" stroke="#595758" stroke-width="1.4569" stroke-linecap="round" x1="399.542" y1="21.256" x2="429.272" y2="21.256"/>
<rect x="324" opacity="0" fill="#C91E1D" width="36" height="36"/>
<line fill="none" stroke="#595758" stroke-width="1.4569" stroke-linecap="round" x1="334.605" y1="13.518" x2="334.605" y2="5.547"/>
<line fill="none" stroke="#595758" stroke-width="1.4569" stroke-linecap="round" x1="349.388" y1="13.518" x2="349.388" y2="5.547"/>
<rect x="330.13" y="9.149" fill="none" stroke="#595758" stroke-width="1.4569" stroke-linecap="round" width="23.739" height="21.04"/>
<rect x="333.967" y="15.709" fill="none" stroke="#595758" stroke-width="1.4569" stroke-linecap="round" width="2.462" height="1.727"/>
<line fill="none" stroke="#595758" stroke-width="1.4569" stroke-linecap="round" x1="336.429" y1="16.574" x2="333.97" y2="16.574"/>
<rect x="340.364" y="15.709" fill="none" stroke="#595758" stroke-width="1.4569" stroke-linecap="round" width="2.452" height="1.727"/>
<line fill="none" stroke="#595758" stroke-width="1.4569" stroke-linecap="round" x1="342.821" y1="16.574" x2="340.36" y2="16.574"/>
<rect x="333.967" y="20.495" fill="none" stroke="#595758" stroke-width="1.4569" stroke-linecap="round" width="2.462" height="1.725"/>
<line fill="none" stroke="#595758" stroke-width="1.4569" stroke-linecap="round" x1="336.429" y1="21.357" x2="333.97" y2="21.357"/>
<rect x="340.364" y="20.495" fill="none" stroke="#595758" stroke-width="1.4569" stroke-linecap="round" width="2.452" height="1.725"/>
<line fill="none" stroke="#595758" stroke-width="1.4569" stroke-linecap="round" x1="342.821" y1="21.357" x2="340.36" y2="21.357"/>
<rect x="333.967" y="25.284" fill="none" stroke="#595758" stroke-width="1.4569" stroke-linecap="round" width="2.462" height="1.719"/>
<line fill="none" stroke="#595758" stroke-width="1.4569" stroke-linecap="round" x1="336.429" y1="26.145" x2="333.97" y2="26.145"/>
<rect x="340.364" y="25.284" fill="none" stroke="#595758" stroke-width="1.4569" stroke-linecap="round" width="2.452" height="1.719"/>
<line fill="none" stroke="#595758" stroke-width="1.4569" stroke-linecap="round" x1="342.821" y1="26.145" x2="340.36" y2="26.145"/>
<rect x="346.746" y="15.709" fill="none" stroke="#595758" stroke-width="1.4569" stroke-linecap="round" width="2.461" height="1.727"/>
<line fill="none" stroke="#595758" stroke-width="1.4569" stroke-linecap="round" x1="349.205" y1="16.574" x2="346.748" y2="16.574"/>
<rect x="346.746" y="20.495" fill="none" stroke="#595758" stroke-width="1.4569" stroke-linecap="round" width="2.461" height="1.725"/>
<line fill="none" stroke="#595758" stroke-width="1.4569" stroke-linecap="round" x1="349.205" y1="21.357" x2="346.748" y2="21.357"/>
<rect x="346.746" y="25.284" fill="none" stroke="#595758" stroke-width="1.4569" stroke-linecap="round" width="2.461" height="1.719"/>
<line fill="none" stroke="#595758" stroke-width="1.4569" stroke-linecap="round" x1="349.205" y1="26.145" x2="346.748" y2="26.145"/>
<rect x="36" opacity="0" fill="#C91E1D" width="36" height="36"/>
<line fill="none" stroke="#595758" stroke-width="1.4569" stroke-linecap="round" x1="66.22" y1="30.822" x2="57.775" y2="22.381"/>
<path fill="none" stroke="#595758" stroke-width="1.4569" stroke-linecap="round" d="M61.184,14.977
	c0,5.936-4.809,10.746-10.745,10.746c-5.934,0-10.741-4.811-10.741-10.746c0-5.934,4.807-10.74,10.741-10.74
	C56.375,4.236,61.184,9.043,61.184,14.977"/>
<rect x="252" opacity="0" fill="#C91E1D" width="36" height="36"/>
<path fill="none" stroke="#595758" stroke-width="1.4569" stroke-linecap="round" d="M270,3.955c-5.313,0-9.621,4.306-9.621,9.621
	c0,5.314,9.621,18.469,9.621,18.469s9.622-13.154,9.622-18.469C279.622,8.261,275.312,3.955,270,3.955 M270,15.852
	c-1.421,0-2.568-1.153-2.568-2.576c0-1.422,1.147-2.572,2.568-2.572c1.422,0,2.572,1.15,2.572,2.572
	C272.572,14.698,271.421,15.852,270,15.852"/>
<rect x="180" opacity="0" fill="#C91E1D" width="36" height="36"/>
<path fill="none" stroke="#595758" stroke-width="1.4569" stroke-linecap="round" d="M194.09,6.575h-7.896
	c-2.16,0-3.916,1.266-3.916,2.833v18.831c0,1.562,1.756,2.832,3.916,2.832h7.896c2.169,0,3.923-1.271,3.923-2.832V9.408
	C198.013,7.841,196.259,6.575,194.09,6.575"/>
<path fill="none" stroke="#595758" stroke-width="1.4569" stroke-linecap="round" d="M211.781,7.952h-8.505
	c-1.073,0-1.935,0.795-1.935,1.783v18.177c0,0.983,0.862,1.781,1.935,1.781h8.505c1.074,0,1.941-0.798,1.941-1.781V9.735
	C213.723,8.747,212.855,7.952,211.781,7.952"/>
<rect x="185.414" y="11.07" fill="none" stroke="#595758" stroke-width="1.4569" stroke-linecap="round" width="9.465" height="16.273"/>
<rect x="185.413" y="11.075" fill="none" stroke="#595758" stroke-width="1.4569" stroke-linecap="round" width="9.466" height="16.267"/>
<rect x="204.448" y="11.133" fill="none" stroke="#595758" stroke-width="1.4569" stroke-linecap="round" width="6.166" height="10.381"/>
<rect x="204.45" y="11.135" fill="none" stroke="#595758" stroke-width="1.4569" stroke-linecap="round" width="6.164" height="10.378"/>
<path fill="none" stroke="#595758" stroke-width="1.4569" stroke-linecap="round" d="M209.29,26.063
	c0,0.972-0.789,1.758-1.756,1.758c-0.973,0-1.761-0.786-1.761-1.758c0-0.971,0.788-1.758,1.761-1.758
	C208.501,24.305,209.29,25.092,209.29,26.063"/>
<rect x="108" opacity="0" fill="#C91E1D" width="36" height="36"/>
<path fill="none" stroke="#595758" stroke-width="1.4569" stroke-linecap="round" d="M114.943,22.174l6.192,6.918
	c0.782,0.873,2.055,0.998,2.859,0.277l9.895-8.855l3.395-6.053c0.8-0.716,0.074-2.836-0.708-3.709l-1.699-1.897
	c-0.782-0.874-2.812-1.835-3.612-1.12l-6.391,2.707l-9.895,8.855C114.176,20.018,114.161,21.301,114.943,22.174"/>
<path fill="none" stroke="#595758" stroke-width="1.4569" stroke-linecap="round" d="M130.39,12.002
	c0.791-0.71,2.005-0.642,2.709,0.146c0.708,0.791,0.642,2.006-0.149,2.713c-0.789,0.706-2.004,0.64-2.712-0.152
	C129.534,13.921,129.601,12.707,130.39,12.002"/>
<line fill="none" stroke="#4AAAAA" stroke-width="1.666" stroke-linecap="round" x1="162.52" y1="66.395" x2="162.522" y2="41.607"/>
<line fill="none" stroke="#4AAAAA" stroke-width="1.666" stroke-linecap="round" x1="150.129" y1="53.999" x2="174.918" y2="53.998"/>
<circle fill="none" stroke="#FFFFFF" stroke-width="1.3861" stroke-linecap="round" cx="126" cy="49.125" r="6.718"/>
<path fill="none" stroke="#FFFFFF" stroke-width="1.3861" stroke-linecap="round" d="M133.917,65.59h4.732
	c-1.439-3.778-4.189-6.799-7.655-8.297c-1.368,1.113-3.092,1.812-4.995,1.812c-1.902,0-3.624-0.696-4.993-1.812
	c-3.466,1.498-6.217,4.519-7.656,8.297h5.599"/>
<circle fill="none" stroke="#FFFFFF" stroke-width="1.3861" stroke-linecap="round" cx="54.001" cy="64.281" r="0.855"/>
<path fill="none" stroke="#FFFFFF" stroke-width="1.3861" stroke-linecap="round" d="M47.505,49.354
	c0-3.586,2.909-6.493,6.494-6.493c3.59,0,6.496,2.907,6.496,6.493c0,3.588-2.906,6.494-6.496,6.494"/>
<line fill="none" stroke="#FFFFFF" stroke-width="1.3861" stroke-linecap="round" x1="53.999" y1="55.848" x2="53.999" y2="59.967"/>
<path fill="none" stroke="#FFFFFF" stroke-width="1.3861" stroke-linecap="round" d="M29.613,53.996
	c0,5.557-4.504,10.061-10.066,10.061c-5.556,0-10.058-4.504-10.058-10.061c0-5.555,4.502-10.061,10.058-10.061
	C25.108,43.936,29.613,48.441,29.613,53.996z"/>
<circle fill="none" stroke="#FFFFFF" stroke-width="1.3861" stroke-linecap="round" cx="19.551" cy="53.996" r="1.18"/>
<line fill="none" stroke="#FFFFFF" stroke-width="1.3861" stroke-linecap="round" x1="17.912" y1="42.416" x2="21.191" y2="42.416"/>
<line fill="none" stroke="#FFFFFF" stroke-width="1.3861" stroke-linecap="round" x1="21.191" y1="65.58" x2="17.912" y2="65.58"/>
<line fill="none" stroke="#FFFFFF" stroke-width="1.3861" stroke-linecap="round" x1="31.133" y1="52.356" x2="31.133" y2="55.637"/>
<line fill="none" stroke="#FFFFFF" stroke-width="1.3861" stroke-linecap="round" x1="7.97" y1="55.637" x2="7.97" y2="52.356"/>
<line fill="none" stroke="#FFFFFF" stroke-width="1.3861" stroke-linecap="round" x1="26.581" y1="44.65" x2="28.899" y2="46.967"/>
<line fill="none" stroke="#FFFFFF" stroke-width="1.3861" stroke-linecap="round" x1="12.521" y1="63.346" x2="10.2" y2="61.025"/>
<line fill="none" stroke="#FFFFFF" stroke-width="1.3861" stroke-linecap="round" x1="28.899" y1="61.025" x2="26.581" y2="63.346"/>
<line fill="none" stroke="#FFFFFF" stroke-width="1.3861" stroke-linecap="round" x1="10.2" y1="46.967" x2="12.521" y2="44.65"/>
<path fill="none" stroke="#FFFFFF" stroke-width="1.3861" stroke-linecap="round" stroke-dasharray="7.8886,3.9443" d="
	M96.896,43.188H83.103c-1.142,0-2.069,1.119-2.069,2.502v16.617c0,1.379,0.927,2.502,2.069,2.502h13.793
	c1.146,0,2.071-1.123,2.071-2.502V45.689C98.967,44.307,98.042,43.188,96.896,43.188"/>
<line fill="none" stroke="#FFFFFF" stroke-width="1.3861" stroke-linecap="round" x1="84.905" y1="46.807" x2="92.076" y2="60.807"/>
<ellipse fill="none" stroke="#FFFFFF" stroke-width="1.3861" stroke-linecap="round" cx="93.294" cy="59.38" rx="1.802" ry="1.808"/>
<line fill="none" stroke="#FFFFFF" stroke-width="1.3861" stroke-linecap="round" x1="95.096" y1="46.807" x2="87.924" y2="60.807"/>
<ellipse fill="none" stroke="#FFFFFF" stroke-width="1.3861" stroke-linecap="round" cx="86.707" cy="59.38" rx="1.802" ry="1.808"/>
<line fill="none" stroke="#FFFFFF" stroke-width="1.735" stroke-linecap="round" x1="200.278" y1="53.998" x2="205.894" y2="58.977"/>
<line fill="none" stroke="#FFFFFF" stroke-width="1.735" stroke-linecap="round" x1="205.894" y1="49.02" x2="200.278" y2="53.998"/>
<line fill="none" stroke="#FFFFFF" stroke-width="1.735" stroke-linecap="round" x1="211.652" y1="53.998" x2="201.36" y2="53.998"/>
<polyline fill="none" stroke="#FFFFFF" stroke-width="1.735" stroke-linecap="round" points="206.646,64.936 191.031,64.936 
	191.031,43.061 206.646,43.061 "/>
<line fill="none" stroke="#FFFFFF" stroke-width="1.735" stroke-linecap="round" x1="197.397" y1="64.775" x2="197.399" y2="43.382"/>
<rect x="72" y="72" opacity="0" fill="#C91E1D" width="36" height="36"/>
<line fill="none" stroke="#B5B4B5" stroke-width="1.4569" stroke-linecap="round" x1="90" y1="97.307" x2="90" y2="88.245"/>
<path fill="none" stroke="#B5B4B5" stroke-width="1.4569" stroke-linecap="round" d="M102.996,89.998
	C102.996,97.177,97.178,103,90,103c-7.182,0-12.996-5.823-12.996-13.002S82.817,77,90,77C97.178,77,102.996,82.819,102.996,89.998z"
	/>
<circle fill="none" stroke="#B5B4B5" stroke-width="1.4569" stroke-linecap="round" cx="89.999" cy="83.978" r="0.661"/>
<rect x="108" y="72" opacity="0" fill="#C91E1D" width="36" height="36"/>
<line fill="none" stroke="#FFFFFF" stroke-width="1.4569" stroke-linecap="round" x1="126" y1="97.307" x2="126" y2="89.179"/>
<path fill="none" stroke="#FFFFFF" stroke-width="1.4569" stroke-linecap="round" d="M138.997,89.998
	c0,7.179-5.818,13.002-12.996,13.002c-7.182,0-12.996-5.823-12.996-13.002S118.818,77,126,77
	C133.179,77,138.997,82.819,138.997,89.998z"/>
<path fill="#FFFFFF" stroke="#FFFFFF" stroke-width="1.4569" stroke-linecap="round" d="M125.236,84.521
	c-0.423-0.424-0.425-1.109-0.001-1.531c0.425-0.426,1.107-0.422,1.53,0c0.422,0.422,0.425,1.104,0,1.529
	C126.342,84.942,125.658,84.942,125.236,84.521z"/>
<circle fill="#B5B4B5" cx="444.436" cy="90.671" r="1.356"/>
<circle fill="#B5B4B5" cx="450" cy="90.671" r="1.356"/>
<circle fill="#B5B4B5" cx="455.564" cy="90.671" r="1.355"/>
<line fill="none" stroke="#B5B4B5" stroke-width="1.4569" stroke-linecap="round" x1="168.132" y1="86.186" x2="161.893" y2="92.42"/>
<path fill="none" stroke="#B5B4B5" stroke-width="1.4569" stroke-linecap="round" d="M173.792,91.79
	c0,6.225-5.044,11.273-11.269,11.273c-6.228,0-11.269-5.049-11.269-11.273s5.041-11.271,11.269-11.271
	C168.748,80.519,173.792,85.565,173.792,91.79z"/>
<path fill="none" stroke="#B5B4B5" stroke-width="1.4569" stroke-linecap="round" d="M163.461,91.79
	c0,0.518-0.419,0.939-0.938,0.939c-0.521,0-0.938-0.422-0.938-0.939s0.417-0.936,0.938-0.936
	C163.042,90.854,163.461,91.272,163.461,91.79z"/>
<path fill="none" stroke="#B5B4B5" stroke-width="1.4569" stroke-linecap="round" d="M163.461,77.999
	c0,0.516-0.419,0.939-0.938,0.939c-0.521,0-0.938-0.424-0.938-0.939s0.417-0.936,0.938-0.936
	C163.042,77.063,163.461,77.483,163.461,77.999z"/>
<line fill="none" stroke="#B5B4B5" stroke-width="1.4569" stroke-linecap="round" x1="305.48" y1="76.051" x2="308.162" y2="76.051"/>
<line fill="none" stroke="#B5B4B5" stroke-width="1.4569" stroke-linecap="round" x1="306.804" y1="103.499" x2="306.804" y2="89.863"/>
<line fill="none" stroke="#B5B4B5" stroke-width="1.4569" stroke-linecap="round" x1="297.96" y1="79.65" x2="315.672" y2="79.65"/>
<path fill="none" stroke="#B5B4B5" stroke-width="1.4569" stroke-linecap="round" d="M315.672,101.339
	c0,1.498-0.922,2.712-2.049,2.712h-13.62c-1.127,0-2.043-1.214-2.043-2.712V86.948c0-1.504,0.916-2.712,2.043-2.712h13.62
	c1.127,0,2.049,1.208,2.049,2.712V101.339z"/>
<path fill="none" stroke="#B5B4B5" stroke-width="1.4569" stroke-linecap="round" d="M220.37,94.928l7.635,8.044
	c0.961,1.018,2.533,1.164,3.521,0.324l12.2-10.301l4.184-7.044c0.991-0.833,0.092-3.296-0.872-4.312l-2.092-2.202
	c-0.963-1.019-3.469-2.14-4.456-1.305l-7.875,3.146l-12.197,10.302C219.423,92.417,219.407,93.909,220.37,94.928"/>
<path fill="none" stroke="#B5B4B5" stroke-width="1.4569" stroke-linecap="round" d="M239.411,83.101
	c0.977-0.824,2.471-0.758,3.341,0.172c0.874,0.914,0.789,2.328-0.183,3.148c-0.973,0.82-2.472,0.742-3.344-0.178
	C238.354,85.327,238.439,83.913,239.411,83.101"/>
<line fill="none" stroke="#B5B4B5" stroke-width="1.4569" stroke-linecap="round" x1="231.474" y1="98.606" x2="231.474" y2="86.565"/>
<line fill="none" stroke="#B5B4B5" stroke-width="1.4569" stroke-linecap="round" x1="225.093" y1="92.583" x2="237.853" y2="92.583"/>
<line fill="none" stroke="#B5B4B5" stroke-width="1.4569" stroke-linecap="round" x1="367.332" y1="90.06" x2="388.255" y2="80.823"/>
<path fill="#B5B4B5" stroke="#B5B4B5" stroke-width="1.4569" stroke-linecap="round" d="M385.914,80.13
	c0.354-0.959,1.418-1.442,2.373-1.084c0.957,0.355,1.438,1.416,1.084,2.371c-0.358,0.958-1.417,1.443-2.371,1.089
	C386.041,82.151,385.555,81.09,385.914,80.13z"/>
<line fill="none" stroke="#B5B4B5" stroke-width="1.4569" stroke-linecap="round" x1="367.332" y1="89.941" x2="388.255" y2="99.177"/>
<path fill="#B5B4B5" stroke="#B5B4B5" stroke-width="1.4569" stroke-linecap="round" d="M385.914,99.871
	c0.354,0.958,1.418,1.442,2.373,1.083c0.957-0.354,1.438-1.414,1.084-2.369c-0.358-0.961-1.417-1.444-2.371-1.09
	C386.041,97.849,385.555,98.913,385.914,99.871z"/>
<path fill="#B5B4B5" stroke="#B5B4B5" stroke-width="1.4569" stroke-linecap="round" d="M365.605,90.587
	c0.354,0.959,1.417,1.441,2.373,1.084c0.957-0.355,1.438-1.414,1.083-2.371c-0.358-0.957-1.417-1.443-2.372-1.088
	C365.732,88.563,365.246,89.629,365.605,90.587z"/>
<line fill="none" stroke="#9F9E9F" x1="5.399" y1="84.615" x2="30.601" y2="84.615"/>
<line fill="none" stroke="#9F9E9F" x1="5.399" y1="95.385" x2="30.601" y2="95.385"/>
<rect x="36.001" y="72" opacity="0" fill="#C91E1D" width="36" height="36"/>
<rect x="396" y="72" opacity="0" fill="#C91E1D" width="36" height="36"/>
<rect x="180.007" y="72" opacity="0" fill="#C91E1D" width="36" height="36"/>
<rect x="252.01" y="72" opacity="0" fill="#C91E1D" width="36" height="36"/>
<rect x="324.013" y="72" opacity="0" fill="#C91E1D" width="36" height="36"/>
<rect x="468.001" y="72" opacity="0" fill="#C91E1D" width="36" height="36"/>
<circle fill="#FFFFFF" cx="480.438" cy="90.671" r="1.356"/>
<circle fill="#FFFFFF" cx="486.001" cy="90.671" r="1.355"/>
<circle fill="#FFFFFF" cx="491.565" cy="90.671" r="1.356"/>
<line fill="none" stroke="#FFFFFF" stroke-width="1.4569" stroke-linecap="round" x1="204.133" y1="86.186" x2="197.894" y2="92.42"/>
<path fill="none" stroke="#FFFFFF" stroke-width="1.4569" stroke-linecap="round" d="M209.793,91.79
	c0,6.225-5.044,11.273-11.269,11.273c-6.228,0-11.269-5.049-11.269-11.273s5.041-11.271,11.269-11.271
	C204.749,80.519,209.793,85.565,209.793,91.79z"/>
<path fill="none" stroke="#FFFFFF" stroke-width="1.4569" stroke-linecap="round" d="M199.463,91.79
	c0,0.518-0.419,0.939-0.938,0.939c-0.521,0-0.938-0.422-0.938-0.939s0.417-0.936,0.938-0.936
	C199.043,90.854,199.463,91.272,199.463,91.79z"/>
<path fill="none" stroke="#FFFFFF" stroke-width="1.4569" stroke-linecap="round" d="M199.463,77.999
	c0,0.516-0.419,0.939-0.938,0.939c-0.521,0-0.938-0.424-0.938-0.939s0.417-0.936,0.938-0.936
	C199.043,77.063,199.463,77.483,199.463,77.999z"/>
<line fill="none" stroke="#FFFFFF" stroke-width="1.4569" stroke-linecap="round" x1="341.481" y1="76.051" x2="344.164" y2="76.051"/>
<line fill="none" stroke="#FFFFFF" stroke-width="1.4569" stroke-linecap="round" x1="342.805" y1="103.499" x2="342.805" y2="89.863"/>
<line fill="none" stroke="#FFFFFF" stroke-width="1.4569" stroke-linecap="round" x1="333.962" y1="79.65" x2="351.673" y2="79.65"/>
<path fill="none" stroke="#FFFFFF" stroke-width="1.4569" stroke-linecap="round" d="M351.673,101.339
	c0,1.498-0.922,2.712-2.049,2.712h-13.619c-1.127,0-2.043-1.214-2.043-2.712V86.948c0-1.504,0.916-2.712,2.043-2.712h13.619
	c1.127,0,2.049,1.208,2.049,2.712V101.339z"/>
<path fill="none" stroke="#FFFFFF" stroke-width="1.4569" stroke-linecap="round" d="M256.372,94.928l7.635,8.044
	c0.962,1.018,2.532,1.164,3.521,0.324l12.2-10.301l4.185-7.044c0.99-0.833,0.092-3.296-0.872-4.312l-2.093-2.202
	c-0.963-1.019-3.469-2.14-4.455-1.305l-7.875,3.146l-12.197,10.302C255.425,92.417,255.408,93.909,256.372,94.928"/>
<path fill="none" stroke="#FFFFFF" stroke-width="1.4569" stroke-linecap="round" d="M275.413,83.101
	c0.977-0.824,2.471-0.758,3.341,0.172c0.873,0.914,0.789,2.328-0.184,3.148s-2.471,0.742-3.344-0.178
	C274.356,85.327,274.441,83.913,275.413,83.101"/>
<line fill="none" stroke="#FFFFFF" stroke-width="1.4569" stroke-linecap="round" x1="267.476" y1="98.606" x2="267.476" y2="86.565"/>
<line fill="none" stroke="#FFFFFF" stroke-width="1.4569" stroke-linecap="round" x1="261.094" y1="92.583" x2="273.855" y2="92.583"/>
<line fill="#FFFFFF" stroke="#FFFFFF" stroke-width="1.4569" stroke-linecap="round" x1="403.333" y1="90.06" x2="424.256" y2="80.823"/>
<path fill="#FFFFFF" stroke="#FFFFFF" stroke-width="1.4569" stroke-linecap="round" d="M421.916,80.13
	c0.354-0.959,1.417-1.442,2.373-1.084c0.957,0.355,1.438,1.416,1.083,2.371c-0.358,0.958-1.417,1.443-2.371,1.089
	C422.042,82.151,421.556,81.09,421.916,80.13z"/>
<line fill="#FFFFFF" stroke="#FFFFFF" stroke-width="1.4569" stroke-linecap="round" x1="403.333" y1="89.941" x2="424.256" y2="99.177"/>
<path fill="#FFFFFF" stroke="#FFFFFF" stroke-width="1.4569" stroke-linecap="round" d="M421.916,99.871
	c0.354,0.958,1.417,1.442,2.373,1.083c0.957-0.354,1.438-1.414,1.083-2.369c-0.358-0.961-1.417-1.444-2.371-1.09
	C422.042,97.849,421.556,98.913,421.916,99.871z"/>
<path fill="#FFFFFF" stroke="#FFFFFF" stroke-width="1.4569" stroke-linecap="round" d="M401.607,90.587
	c0.354,0.959,1.416,1.441,2.372,1.084c0.957-0.355,1.438-1.414,1.083-2.371c-0.357-0.957-1.416-1.443-2.371-1.088
	C401.733,88.563,401.248,89.629,401.607,90.587z"/>
<line fill="none" stroke="#FFFFFF" x1="41.401" y1="84.615" x2="66.602" y2="84.615"/>
<line fill="none" stroke="#FFFFFF" x1="41.401" y1="95.385" x2="66.602" y2="95.385"/>
<rect x="288.013" y="36" opacity="0" fill="#C91E1D" width="36" height="36"/>
<line fill="none" stroke="#595758" stroke-width="1.4569" stroke-linecap="round" x1="318.673" y1="66.66" x2="293.353" y2="41.34"/>
<line fill="none" stroke="#595758" stroke-width="1.4569" stroke-linecap="round" x1="293.353" y1="66.66" x2="318.673" y2="41.34"/>
<rect x="216.011" y="36" opacity="0" fill="#C91E1D" width="36" height="36"/>
<rect x="360.015" y="36" opacity="0" fill="#C91E1D" width="36" height="36"/>
<rect x="396.015" y="36" opacity="0" fill="#C91E1D" width="36" height="36"/>
<polyline fill="none" stroke="#595758" stroke-width="1.4569" stroke-linecap="round" points="247.043,48.854 234.006,60.988 
	220.979,48.854 "/>
<circle opacity="0.2" fill="#231815" cx="378.015" cy="54" r="13.999"/>
<line fill="none" stroke="#FFFFFF" stroke-width="1.6943" stroke-linecap="round" x1="386.084" y1="62.068" x2="369.948" y2="45.932"/>
<line fill="none" stroke="#FFFFFF" stroke-width="1.6943" stroke-linecap="round" x1="369.948" y1="62.068" x2="386.084" y2="45.932"/>
<circle opacity="0.2" fill="#FFFFFF" cx="414.015" cy="54" r="13.999"/>
<line fill="none" stroke="#595758" stroke-width="1.6943" stroke-linecap="round" x1="422.084" y1="62.068" x2="405.948" y2="45.932"/>
<line fill="none" stroke="#595758" stroke-width="1.6943" stroke-linecap="round" x1="405.948" y1="62.068" x2="422.084" y2="45.932"/>
<rect x="324.014" y="36" opacity="0" fill="#C91E1D" width="36" height="36"/>
<line fill="none" stroke="#FFFFFF" stroke-width="1.4569" stroke-linecap="round" x1="354.674" y1="66.66" x2="329.354" y2="41.34"/>
<line fill="none" stroke="#FFFFFF" stroke-width="1.4569" stroke-linecap="round" x1="329.354" y1="66.66" x2="354.674" y2="41.34"/>
<rect x="252.012" y="36" opacity="0" fill="#C91E1D" width="36" height="36"/>
<polyline fill="none" stroke="#FFFFFF" stroke-width="1.4569" stroke-linecap="round" points="283.044,48.854 270.007,60.988 
	256.98,48.854 "/>
</svg>
