<?xml version="1.0" encoding="utf-8"?>
<!-- Generator: Adobe Illustrator 14.0.0, SVG Export Plug-In  -->
<!DOCTYPE svg PUBLIC "-//W3C//DTD SVG 1.1//EN" "http://www.w3.org/Graphics/SVG/1.1/DTD/svg11.dtd" [
	<!ENTITY ns_flows "http://ns.adobe.com/Flows/1.0/">
]>
<svg version="1.1"
	 xmlns="http://www.w3.org/2000/svg" xmlns:xlink="http://www.w3.org/1999/xlink" xmlns:a="http://ns.adobe.com/AdobeSVGViewerExtensions/3.0/"
	 x="0px" y="0px" width="392px" height="84px" viewBox="0 0.039 392 84" enable-background="new 0 0.039 392 84"
	 xml:space="preserve">
<defs>
</defs>
<rect y="28" opacity="0" fill="#C91E1D" width="28" height="28"/>
<rect y="56" opacity="0" fill="#C91E1D" width="28" height="28"/>
<rect x="280" y="56" opacity="0" fill="#C91E1D" width="28" height="28"/>
<rect x="112.004" y="56" opacity="0" fill="#C91E1D" width="28" height="28"/>
<rect x="168.007" y="56" opacity="0" fill="#C91E1D" width="28" height="28"/>
<rect x="224.009" y="56" opacity="0" fill="#C91E1D" width="28" height="28"/>
<rect x="336" y="56" opacity="0" fill="#C91E1D" width="28" height="28"/>
<rect x="28" y="28" opacity="0" fill="#C91E1D" width="28" height="28"/>
<rect x="56" y="28" opacity="0" fill="#C91E1D" width="28" height="28"/>
<rect x="84" y="28" opacity="0" fill="#C91E1D" width="28" height="28"/>
<rect x="112" y="28" opacity="0" fill="#C91E1D" width="28" height="28"/>
<rect x="140" y="28" opacity="0" fill="#C91E1D" width="28" height="28"/>
<rect x="280" opacity="0" fill="#C91E1D" width="28" height="28"/>
<text transform="matrix(0.9619 0 0 1 281.0474 20.3623)" fill="#FFFFFF" stroke="#FFFFFF" stroke-width="0.5" stroke-linecap="round" font-family="'NixieOne-Regular'" font-size="22.9333">A</text>
<text transform="matrix(0.9619 0 0 1 297.4595 20.377)" fill="#FFFFFF" stroke="#FFFFFF" stroke-width="0.5" stroke-linecap="round" font-family="'NixieOne-Regular'" font-size="17.6558">a</text>
<line fill="#FFFFFF" stroke="#FFFFFF" stroke-width="1.4569" stroke-linecap="round" x1="282.755" y1="16.532" x2="305.878" y2="16.532"/>
<rect x="224" opacity="0" fill="#C91E1D" width="28" height="28"/>
<line fill="none" stroke="#FFFFFF" stroke-width="1.4569" stroke-linecap="round" x1="232.248" y1="10.514" x2="232.248" y2="4.315"/>
<line fill="none" stroke="#FFFFFF" stroke-width="1.4569" stroke-linecap="round" x1="243.747" y1="10.514" x2="243.747" y2="4.315"/>
<rect x="228.769" y="7.116" fill="none" stroke="#FFFFFF" stroke-width="1.4569" stroke-linecap="round" width="18.463" height="16.364"/>
<rect x="231.752" y="12.218" fill="none" stroke="#FFFFFF" stroke-width="1.4569" stroke-linecap="round" width="1.915" height="1.344"/>
<line fill="none" stroke="#FFFFFF" stroke-width="1.4569" stroke-linecap="round" x1="233.667" y1="12.892" x2="231.755" y2="12.892"/>
<rect x="236.728" y="12.218" fill="none" stroke="#FFFFFF" stroke-width="1.4569" stroke-linecap="round" width="1.907" height="1.344"/>
<line fill="none" stroke="#FFFFFF" stroke-width="1.4569" stroke-linecap="round" x1="238.638" y1="12.892" x2="236.724" y2="12.892"/>
<rect x="231.752" y="15.94" fill="none" stroke="#FFFFFF" stroke-width="1.4569" stroke-linecap="round" width="1.915" height="1.342"/>
<line fill="none" stroke="#FFFFFF" stroke-width="1.4569" stroke-linecap="round" x1="233.667" y1="16.611" x2="231.755" y2="16.611"/>
<rect x="236.728" y="15.94" fill="none" stroke="#FFFFFF" stroke-width="1.4569" stroke-linecap="round" width="1.907" height="1.342"/>
<line fill="none" stroke="#FFFFFF" stroke-width="1.4569" stroke-linecap="round" x1="238.638" y1="16.611" x2="236.724" y2="16.611"/>
<rect x="231.752" y="19.666" fill="none" stroke="#FFFFFF" stroke-width="1.4569" stroke-linecap="round" width="1.915" height="1.337"/>
<line fill="none" stroke="#FFFFFF" stroke-width="1.4569" stroke-linecap="round" x1="233.667" y1="20.335" x2="231.755" y2="20.335"/>
<rect x="236.728" y="19.666" fill="none" stroke="#FFFFFF" stroke-width="1.4569" stroke-linecap="round" width="1.907" height="1.337"/>
<line fill="none" stroke="#FFFFFF" stroke-width="1.4569" stroke-linecap="round" x1="238.638" y1="20.335" x2="236.724" y2="20.335"/>
<rect x="241.69" y="12.218" fill="none" stroke="#FFFFFF" stroke-width="1.4569" stroke-linecap="round" width="1.914" height="1.344"/>
<line fill="none" stroke="#FFFFFF" stroke-width="1.4569" stroke-linecap="round" x1="243.603" y1="12.892" x2="241.692" y2="12.892"/>
<rect x="241.69" y="15.94" fill="none" stroke="#FFFFFF" stroke-width="1.4569" stroke-linecap="round" width="1.914" height="1.342"/>
<line fill="none" stroke="#FFFFFF" stroke-width="1.4569" stroke-linecap="round" x1="243.603" y1="16.611" x2="241.692" y2="16.611"/>
<rect x="241.69" y="19.666" fill="none" stroke="#FFFFFF" stroke-width="1.4569" stroke-linecap="round" width="1.914" height="1.337"/>
<line fill="none" stroke="#FFFFFF" stroke-width="1.4569" stroke-linecap="round" x1="243.603" y1="20.335" x2="241.692" y2="20.335"/>
<rect opacity="0" fill="#C91E1D" width="28" height="28"/>
<line fill="none" stroke="#FFFFFF" stroke-width="1.4569" stroke-linecap="round" x1="23.504" y1="23.973" x2="16.936" y2="17.407"/>
<path fill="none" stroke="#FFFFFF" stroke-width="1.4569" stroke-linecap="round" d="M19.587,11.648c0,4.616-3.74,8.358-8.357,8.358
	c-4.615,0-8.354-3.742-8.354-8.358c0-4.615,3.739-8.354,8.354-8.354C15.847,3.295,19.587,7.033,19.587,11.648"/>
<rect x="168" opacity="0" fill="#C91E1D" width="28" height="28"/>
<path fill="none" stroke="#FFFFFF" stroke-width="1.4569" stroke-linecap="round" d="M182,3.076c-4.132,0-7.483,3.349-7.483,7.483
	c0,4.133,7.483,14.364,7.483,14.364s7.483-10.231,7.483-14.364C189.483,6.425,186.132,3.076,182,3.076 M182,12.329
	c-1.106,0-1.999-0.896-1.999-2.004c0-1.105,0.893-2,1.999-2c1.104,0,2.001,0.895,2.001,2C184.001,11.433,183.104,12.329,182,12.329"
	/>
<rect x="112" opacity="0" fill="#C91E1D" width="28" height="28"/>
<path fill="none" stroke="#FFFFFF" stroke-width="1.4569" stroke-linecap="round" d="M122.958,5.114h-6.141
	c-1.68,0-3.046,0.984-3.046,2.203v14.646c0,1.215,1.366,2.203,3.046,2.203h6.141c1.688,0,3.053-0.988,3.053-2.203V7.317
	C126.011,6.099,124.646,5.114,122.958,5.114"/>
<path fill="none" stroke="#FFFFFF" stroke-width="1.4569" stroke-linecap="round" d="M136.719,6.186h-6.614
	c-0.836,0-1.506,0.618-1.506,1.387V21.71c0,0.765,0.67,1.385,1.506,1.385h6.614c0.835,0,1.51-0.62,1.51-1.385V7.572
	C138.229,6.804,137.554,6.186,136.719,6.186"/>
<rect x="116.211" y="8.61" fill="none" stroke="#FFFFFF" stroke-width="1.4569" stroke-linecap="round" width="7.361" height="12.658"/>
<rect x="116.21" y="8.614" fill="none" stroke="#FFFFFF" stroke-width="1.4569" stroke-linecap="round" width="7.362" height="12.651"/>
<rect x="131.015" y="8.659" fill="none" stroke="#FFFFFF" stroke-width="1.4569" stroke-linecap="round" width="4.795" height="8.074"/>
<rect x="131.017" y="8.66" fill="none" stroke="#FFFFFF" stroke-width="1.4569" stroke-linecap="round" width="4.793" height="8.072"/>
<path fill="none" stroke="#FFFFFF" stroke-width="1.4569" stroke-linecap="round" d="M134.78,20.271
	c0,0.756-0.612,1.367-1.365,1.367c-0.757,0-1.369-0.611-1.369-1.367c0-0.755,0.612-1.367,1.369-1.367
	C134.168,18.903,134.78,19.516,134.78,20.271"/>
<rect x="56" opacity="0" fill="#C91E1D" width="28" height="28"/>
<path fill="none" stroke="#FFFFFF" stroke-width="1.4569" stroke-linecap="round" d="M61.4,17.246l4.816,5.381
	c0.608,0.679,1.599,0.776,2.224,0.216l7.696-6.888l2.641-4.708c0.622-0.557,0.058-2.205-0.55-2.885l-1.322-1.475
	c-0.608-0.681-2.187-1.428-2.81-0.872l-4.97,2.105l-7.696,6.888C60.803,15.569,60.792,16.567,61.4,17.246"/>
<path fill="none" stroke="#FFFFFF" stroke-width="1.4569" stroke-linecap="round" d="M73.414,9.335
	c0.615-0.552,1.559-0.5,2.107,0.113c0.551,0.615,0.499,1.561-0.116,2.11c-0.613,0.55-1.559,0.498-2.109-0.118
	C72.748,10.827,72.8,9.884,73.414,9.335"/>
<rect x="308" opacity="0" fill="#C91E1D" width="28" height="28"/>
<text transform="matrix(0.9619 0 0 1 309.0474 20.3623)" fill="#595758" stroke="#595758" stroke-width="0.5" stroke-linecap="round" font-family="'NixieOne-Regular'" font-size="22.9333">A</text>
<text transform="matrix(0.9619 0 0 1 325.4595 20.377)" fill="#595758" stroke="#595758" stroke-width="0.5" stroke-linecap="round" font-family="'NixieOne-Regular'" font-size="17.6558">a</text>
<line fill="#FFFFFF" stroke="#595758" stroke-width="1.4569" stroke-linecap="round" x1="310.755" y1="16.532" x2="333.878" y2="16.532"/>
<rect x="252" opacity="0" fill="#C91E1D" width="28" height="28"/>
<line fill="none" stroke="#595758" stroke-width="1.4569" stroke-linecap="round" x1="260.248" y1="10.514" x2="260.248" y2="4.315"/>
<line fill="none" stroke="#595758" stroke-width="1.4569" stroke-linecap="round" x1="271.748" y1="10.514" x2="271.748" y2="4.315"/>
<rect x="256.769" y="7.116" fill="none" stroke="#595758" stroke-width="1.4569" stroke-linecap="round" width="18.463" height="16.364"/>
<rect x="259.751" y="12.218" fill="none" stroke="#595758" stroke-width="1.4569" stroke-linecap="round" width="1.916" height="1.344"/>
<line fill="none" stroke="#595758" stroke-width="1.4569" stroke-linecap="round" x1="261.667" y1="12.892" x2="259.755" y2="12.892"/>
<rect x="264.728" y="12.218" fill="none" stroke="#595758" stroke-width="1.4569" stroke-linecap="round" width="1.906" height="1.344"/>
<line fill="none" stroke="#595758" stroke-width="1.4569" stroke-linecap="round" x1="266.638" y1="12.892" x2="264.724" y2="12.892"/>
<rect x="259.751" y="15.94" fill="none" stroke="#595758" stroke-width="1.4569" stroke-linecap="round" width="1.916" height="1.342"/>
<line fill="none" stroke="#595758" stroke-width="1.4569" stroke-linecap="round" x1="261.667" y1="16.611" x2="259.755" y2="16.611"/>
<rect x="264.728" y="15.94" fill="none" stroke="#595758" stroke-width="1.4569" stroke-linecap="round" width="1.906" height="1.342"/>
<line fill="none" stroke="#595758" stroke-width="1.4569" stroke-linecap="round" x1="266.638" y1="16.611" x2="264.724" y2="16.611"/>
<rect x="259.751" y="19.666" fill="none" stroke="#595758" stroke-width="1.4569" stroke-linecap="round" width="1.916" height="1.337"/>
<line fill="none" stroke="#595758" stroke-width="1.4569" stroke-linecap="round" x1="261.667" y1="20.335" x2="259.755" y2="20.335"/>
<rect x="264.728" y="19.666" fill="none" stroke="#595758" stroke-width="1.4569" stroke-linecap="round" width="1.906" height="1.337"/>
<line fill="none" stroke="#595758" stroke-width="1.4569" stroke-linecap="round" x1="266.638" y1="20.335" x2="264.724" y2="20.335"/>
<rect x="269.691" y="12.218" fill="none" stroke="#595758" stroke-width="1.4569" stroke-linecap="round" width="1.914" height="1.344"/>
<line fill="none" stroke="#595758" stroke-width="1.4569" stroke-linecap="round" x1="271.603" y1="12.892" x2="269.693" y2="12.892"/>
<rect x="269.691" y="15.94" fill="none" stroke="#595758" stroke-width="1.4569" stroke-linecap="round" width="1.914" height="1.342"/>
<line fill="none" stroke="#595758" stroke-width="1.4569" stroke-linecap="round" x1="271.603" y1="16.611" x2="269.693" y2="16.611"/>
<rect x="269.691" y="19.666" fill="none" stroke="#595758" stroke-width="1.4569" stroke-linecap="round" width="1.914" height="1.337"/>
<line fill="none" stroke="#595758" stroke-width="1.4569" stroke-linecap="round" x1="271.603" y1="20.335" x2="269.693" y2="20.335"/>
<rect x="28" opacity="0" fill="#C91E1D" width="28" height="28"/>
<line fill="none" stroke="#595758" stroke-width="1.4569" stroke-linecap="round" x1="51.504" y1="23.973" x2="44.936" y2="17.407"/>
<path fill="none" stroke="#595758" stroke-width="1.4569" stroke-linecap="round" d="M47.587,11.648c0,4.616-3.74,8.358-8.357,8.358
	c-4.615,0-8.354-3.742-8.354-8.358c0-4.615,3.739-8.354,8.354-8.354C43.847,3.295,47.587,7.033,47.587,11.648"/>
<rect x="196" opacity="0" fill="#C91E1D" width="28" height="28"/>
<path fill="none" stroke="#595758" stroke-width="1.4569" stroke-linecap="round" d="M210,3.076c-4.132,0-7.483,3.349-7.483,7.483
	c0,4.133,7.483,14.364,7.483,14.364s7.483-10.231,7.483-14.364C217.483,6.425,214.132,3.076,210,3.076 M210,12.329
	c-1.106,0-1.999-0.896-1.999-2.004c0-1.105,0.893-2,1.999-2c1.104,0,2.001,0.895,2.001,2C212.001,11.433,211.104,12.329,210,12.329"
	/>
<rect x="140" opacity="0" fill="#C91E1D" width="28" height="28"/>
<path fill="none" stroke="#595758" stroke-width="1.4569" stroke-linecap="round" d="M150.958,5.114h-6.141
	c-1.68,0-3.047,0.984-3.047,2.203v14.646c0,1.215,1.367,2.203,3.047,2.203h6.141c1.688,0,3.053-0.988,3.053-2.203V7.317
	C154.011,6.099,152.646,5.114,150.958,5.114"/>
<path fill="none" stroke="#595758" stroke-width="1.4569" stroke-linecap="round" d="M164.719,6.186h-6.614
	c-0.836,0-1.506,0.618-1.506,1.387V21.71c0,0.765,0.67,1.385,1.506,1.385h6.614c0.835,0,1.509-0.62,1.509-1.385V7.572
	C166.228,6.804,165.554,6.186,164.719,6.186"/>
<rect x="144.211" y="8.61" fill="none" stroke="#595758" stroke-width="1.4569" stroke-linecap="round" width="7.36" height="12.658"/>
<rect x="144.21" y="8.614" fill="none" stroke="#595758" stroke-width="1.4569" stroke-linecap="round" width="7.361" height="12.651"/>
<rect x="159.015" y="8.659" fill="none" stroke="#595758" stroke-width="1.4569" stroke-linecap="round" width="4.795" height="8.074"/>
<rect x="159.017" y="8.66" fill="none" stroke="#595758" stroke-width="1.4569" stroke-linecap="round" width="4.793" height="8.072"/>
<path fill="none" stroke="#595758" stroke-width="1.4569" stroke-linecap="round" d="M162.78,20.271
	c0,0.756-0.613,1.367-1.365,1.367c-0.757,0-1.369-0.611-1.369-1.367c0-0.755,0.612-1.367,1.369-1.367
	C162.167,18.903,162.78,19.516,162.78,20.271"/>
<rect x="84" opacity="0" fill="#C91E1D" width="28" height="28"/>
<path fill="none" stroke="#595758" stroke-width="1.4569" stroke-linecap="round" d="M89.4,17.246l4.816,5.381
	c0.608,0.679,1.599,0.776,2.224,0.216l7.696-6.888l2.641-4.708c0.622-0.557,0.058-2.205-0.55-2.885l-1.322-1.475
	c-0.608-0.681-2.187-1.428-2.81-0.872l-4.97,2.105l-7.696,6.888C88.803,15.569,88.792,16.567,89.4,17.246"/>
<path fill="none" stroke="#595758" stroke-width="1.4569" stroke-linecap="round" d="M101.414,9.335
	c0.615-0.552,1.559-0.5,2.107,0.113c0.551,0.615,0.499,1.561-0.116,2.11c-0.613,0.55-1.559,0.498-2.109-0.118
	C100.748,10.827,100.8,9.884,101.414,9.335"/>
<line fill="none" stroke="#4AAAAA" stroke-width="1.666" stroke-linecap="round" x1="126.404" y1="51.64" x2="126.405" y2="32.361"/>
<line fill="none" stroke="#4AAAAA" stroke-width="1.666" stroke-linecap="round" x1="116.767" y1="41.999" x2="136.047" y2="41.999"/>
<circle fill="none" stroke="#FFFFFF" stroke-width="1.3861" stroke-linecap="round" cx="98" cy="38.208" r="5.225"/>
<path fill="none" stroke="#FFFFFF" stroke-width="1.3861" stroke-linecap="round" d="M104.158,51.015h3.68
	c-1.119-2.938-3.258-5.287-5.954-6.453c-1.064,0.865-2.404,1.409-3.885,1.409c-1.479,0-2.819-0.542-3.883-1.409
	c-2.696,1.166-4.835,3.515-5.956,6.453h4.355"/>
<circle fill="none" stroke="#FFFFFF" stroke-width="1.3861" stroke-linecap="round" cx="42" cy="49.997" r="0.665"/>
<path fill="none" stroke="#FFFFFF" stroke-width="1.3861" stroke-linecap="round" d="M36.948,38.386c0-2.789,2.263-5.051,5.05-5.051
	c2.793,0,5.053,2.262,5.053,5.051c0,2.791-2.26,5.051-5.053,5.051"/>
<line fill="none" stroke="#FFFFFF" stroke-width="1.3861" stroke-linecap="round" x1="41.999" y1="43.437" x2="41.999" y2="46.641"/>
<path fill="none" stroke="#FFFFFF" stroke-width="1.3861" stroke-linecap="round" d="M23.032,41.997
	c0,4.322-3.503,7.824-7.829,7.824c-4.322,0-7.823-3.502-7.823-7.824c0-4.32,3.501-7.825,7.823-7.825
	C19.528,34.172,23.032,37.677,23.032,41.997z"/>
<circle fill="none" stroke="#FFFFFF" stroke-width="1.3861" stroke-linecap="round" cx="15.206" cy="41.997" r="0.918"/>
<line fill="none" stroke="#FFFFFF" stroke-width="1.3861" stroke-linecap="round" x1="13.931" y1="32.99" x2="16.482" y2="32.99"/>
<line fill="none" stroke="#FFFFFF" stroke-width="1.3861" stroke-linecap="round" x1="16.482" y1="51.007" x2="13.931" y2="51.007"/>
<line fill="none" stroke="#FFFFFF" stroke-width="1.3861" stroke-linecap="round" x1="24.214" y1="40.722" x2="24.214" y2="43.272"/>
<line fill="none" stroke="#FFFFFF" stroke-width="1.3861" stroke-linecap="round" x1="6.199" y1="43.272" x2="6.199" y2="40.722"/>
<line fill="none" stroke="#FFFFFF" stroke-width="1.3861" stroke-linecap="round" x1="20.674" y1="34.728" x2="22.477" y2="36.53"/>
<line fill="none" stroke="#FFFFFF" stroke-width="1.3861" stroke-linecap="round" x1="9.738" y1="49.269" x2="7.933" y2="47.464"/>
<line fill="none" stroke="#FFFFFF" stroke-width="1.3861" stroke-linecap="round" x1="22.477" y1="47.464" x2="20.674" y2="49.269"/>
<line fill="none" stroke="#FFFFFF" stroke-width="1.3861" stroke-linecap="round" x1="7.933" y1="36.53" x2="9.738" y2="34.728"/>
<path fill="none" stroke="#FFFFFF" stroke-width="1.3861" stroke-linecap="round" stroke-dasharray="7.8886,3.9443" d="
	M75.363,33.591H64.635c-0.888,0-1.609,0.871-1.609,1.945v12.926c0,1.071,0.721,1.945,1.609,1.945h10.728
	c0.892,0,1.611-0.874,1.611-1.945V35.536C76.974,34.462,76.254,33.591,75.363,33.591"/>
<line fill="none" stroke="#FFFFFF" stroke-width="1.3861" stroke-linecap="round" x1="66.038" y1="36.405" x2="71.614" y2="47.294"/>
<ellipse fill="none" stroke="#FFFFFF" stroke-width="1.3861" stroke-linecap="round" cx="72.562" cy="46.185" rx="1.401" ry="1.406"/>
<line fill="none" stroke="#FFFFFF" stroke-width="1.3861" stroke-linecap="round" x1="73.963" y1="36.405" x2="68.385" y2="47.294"/>
<ellipse fill="none" stroke="#FFFFFF" stroke-width="1.3861" stroke-linecap="round" cx="67.438" cy="46.185" rx="1.401" ry="1.406"/>
<line fill="none" stroke="#FFFFFF" stroke-width="1.735" stroke-linecap="round" x1="155.771" y1="41.999" x2="160.14" y2="45.87"/>
<line fill="none" stroke="#FFFFFF" stroke-width="1.735" stroke-linecap="round" x1="160.14" y1="38.126" x2="155.771" y2="41.999"/>
<line fill="none" stroke="#FFFFFF" stroke-width="1.735" stroke-linecap="round" x1="164.618" y1="41.999" x2="156.614" y2="41.999"/>
<polyline fill="none" stroke="#FFFFFF" stroke-width="1.735" stroke-linecap="round" points="160.725,50.505 148.579,50.505 
	148.579,33.491 160.725,33.491 "/>
<line fill="none" stroke="#FFFFFF" stroke-width="1.735" stroke-linecap="round" x1="153.531" y1="50.381" x2="153.532" y2="33.741"/>
<rect x="56" y="56" opacity="0" fill="#C91E1D" width="28" height="28"/>
<line fill="none" stroke="#B5B4B5" stroke-width="1.4569" stroke-linecap="round" x1="70" y1="75.683" x2="70" y2="68.636"/>
<path fill="none" stroke="#B5B4B5" stroke-width="1.4569" stroke-linecap="round" d="M80.107,69.999
	c0,5.582-4.525,10.113-10.108,10.113c-5.586,0-10.108-4.531-10.108-10.113c0-5.584,4.522-10.11,10.108-10.11
	C75.583,59.889,80.107,64.415,80.107,69.999z"/>
<circle fill="none" stroke="#B5B4B5" stroke-width="1.4569" stroke-linecap="round" cx="69.999" cy="65.316" r="0.514"/>
<rect x="84" y="56" opacity="0" fill="#C91E1D" width="28" height="28"/>
<line fill="none" stroke="#FFFFFF" stroke-width="1.4569" stroke-linecap="round" x1="98" y1="75.683" x2="98" y2="69.36"/>
<path fill="none" stroke="#FFFFFF" stroke-width="1.4569" stroke-linecap="round" d="M108.108,69.999
	c0,5.582-4.525,10.113-10.108,10.113c-5.586,0-10.108-4.531-10.108-10.113c0-5.584,4.522-10.11,10.108-10.11
	C103.583,59.889,108.108,64.415,108.108,69.999z"/>
<path fill="#FFFFFF" stroke="#FFFFFF" stroke-width="1.4569" stroke-linecap="round" d="M97.405,65.737
	c-0.329-0.328-0.331-0.861,0-1.189c0.331-0.332,0.861-0.328,1.19,0s0.331,0.857,0,1.189C98.266,66.065,97.733,66.065,97.405,65.737z
	"/>
<circle fill="#B5B4B5" cx="345.672" cy="70.522" r="1.054"/>
<circle fill="#B5B4B5" cx="350" cy="70.522" r="1.055"/>
<circle fill="#B5B4B5" cx="354.328" cy="70.522" r="1.055"/>
<line fill="none" stroke="#B5B4B5" stroke-width="1.4569" stroke-linecap="round" x1="130.769" y1="67.033" x2="125.916" y2="71.882"/>
<path fill="none" stroke="#B5B4B5" stroke-width="1.4569" stroke-linecap="round" d="M135.171,71.393
	c0,4.841-3.924,8.769-8.764,8.769c-4.844,0-8.765-3.928-8.765-8.769s3.921-8.767,8.765-8.767
	C131.247,62.626,135.171,66.552,135.171,71.393z"/>
<path fill="none" stroke="#B5B4B5" stroke-width="1.4569" stroke-linecap="round" d="M127.136,71.393
	c0,0.401-0.326,0.729-0.729,0.729c-0.406,0-0.729-0.328-0.729-0.729c0-0.402,0.323-0.728,0.729-0.728
	C126.81,70.665,127.136,70.99,127.136,71.393z"/>
<path fill="none" stroke="#B5B4B5" stroke-width="1.4569" stroke-linecap="round" d="M127.136,60.665
	c0,0.402-0.326,0.732-0.729,0.732c-0.406,0-0.729-0.33-0.729-0.732c0-0.4,0.323-0.727,0.729-0.727
	C126.81,59.938,127.136,60.265,127.136,60.665z"/>
<line fill="none" stroke="#B5B4B5" stroke-width="1.4569" stroke-linecap="round" x1="237.595" y1="59.15" x2="239.681" y2="59.15"/>
<line fill="none" stroke="#B5B4B5" stroke-width="1.4569" stroke-linecap="round" x1="238.625" y1="80.499" x2="238.625" y2="69.894"/>
<line fill="none" stroke="#B5B4B5" stroke-width="1.4569" stroke-linecap="round" x1="231.747" y1="61.95" x2="245.522" y2="61.95"/>
<path fill="none" stroke="#B5B4B5" stroke-width="1.4569" stroke-linecap="round" d="M245.522,78.819
	c0,1.164-0.717,2.109-1.594,2.109h-10.593c-0.876,0-1.589-0.945-1.589-2.109V67.627c0-1.17,0.713-2.11,1.589-2.11h10.593
	c0.877,0,1.594,0.94,1.594,2.11V78.819z"/>
<path fill="none" stroke="#B5B4B5" stroke-width="1.4569" stroke-linecap="round" d="M171.398,73.833l5.938,6.256
	c0.748,0.792,1.97,0.906,2.738,0.253l9.488-8.012l3.255-5.479c0.771-0.648,0.071-2.563-0.678-3.353l-1.628-1.714
	c-0.749-0.791-2.697-1.663-3.465-1.014l-6.125,2.447l-9.487,8.012C170.663,71.88,170.649,73.041,171.398,73.833"/>
<path fill="none" stroke="#B5B4B5" stroke-width="1.4569" stroke-linecap="round" d="M186.208,64.634
	c0.76-0.641,1.922-0.589,2.599,0.133c0.68,0.711,0.614,1.813-0.142,2.45c-0.758,0.638-1.924,0.577-2.602-0.14
	C185.387,66.366,185.452,65.267,186.208,64.634"/>
<line fill="none" stroke="#B5B4B5" stroke-width="1.4569" stroke-linecap="round" x1="180.035" y1="76.694" x2="180.035" y2="67.329"/>
<line fill="none" stroke="#B5B4B5" stroke-width="1.4569" stroke-linecap="round" x1="175.071" y1="72.009" x2="184.997" y2="72.009"/>
<line fill="none" stroke="#B5B4B5" stroke-width="1.4569" stroke-linecap="round" x1="285.703" y1="70.047" x2="301.976" y2="62.862"/>
<path fill="#B5B4B5" stroke="#B5B4B5" stroke-width="1.4569" stroke-linecap="round" d="M300.156,62.323
	c0.275-0.746,1.102-1.122,1.846-0.843c0.744,0.276,1.117,1.102,0.842,1.845c-0.277,0.744-1.102,1.122-1.844,0.846
	C300.253,63.896,299.876,63.069,300.156,62.323z"/>
<line fill="none" stroke="#B5B4B5" stroke-width="1.4569" stroke-linecap="round" x1="285.703" y1="69.954" x2="301.976" y2="77.138"/>
<path fill="#B5B4B5" stroke="#B5B4B5" stroke-width="1.4569" stroke-linecap="round" d="M300.156,77.679
	c0.275,0.744,1.102,1.121,1.846,0.842c0.744-0.276,1.117-1.1,0.842-1.843c-0.277-0.747-1.102-1.124-1.844-0.848
	C300.253,76.104,299.876,76.933,300.156,77.679z"/>
<path fill="#B5B4B5" stroke="#B5B4B5" stroke-width="1.4569" stroke-linecap="round" d="M284.359,70.457
	c0.275,0.745,1.104,1.121,1.846,0.843c0.744-0.276,1.119-1.1,0.844-1.844c-0.279-0.744-1.104-1.123-1.846-0.848
	C284.458,68.882,284.08,69.712,284.359,70.457z"/>
<line fill="none" stroke="#9F9E9F" x1="4.2" y1="65.812" x2="23.8" y2="65.812"/>
<line fill="none" stroke="#9F9E9F" x1="4.2" y1="74.188" x2="23.8" y2="74.188"/>
<rect x="28.001" y="56" opacity="0" fill="#C91E1D" width="28" height="28"/>
<rect x="308" y="56" opacity="0" fill="#C91E1D" width="28" height="28"/>
<rect x="140.006" y="56" opacity="0" fill="#C91E1D" width="27.999" height="28"/>
<rect x="196.008" y="56" opacity="0" fill="#C91E1D" width="28" height="28"/>
<rect x="252.011" y="56" opacity="0" fill="#C91E1D" width="28" height="28"/>
<rect x="364.001" y="56" opacity="0" fill="#C91E1D" width="28" height="28"/>
<circle fill="#FFFFFF" cx="373.673" cy="70.522" r="1.055"/>
<circle fill="#FFFFFF" cx="378.001" cy="70.522" r="1.055"/>
<circle fill="#FFFFFF" cx="382.33" cy="70.522" r="1.055"/>
<line fill="none" stroke="#FFFFFF" stroke-width="1.4569" stroke-linecap="round" x1="158.771" y1="67.033" x2="153.917" y2="71.882"/>
<path fill="none" stroke="#FFFFFF" stroke-width="1.4569" stroke-linecap="round" d="M163.173,71.393
	c0,4.841-3.924,8.769-8.766,8.769c-4.844,0-8.764-3.928-8.764-8.769s3.92-8.767,8.764-8.767
	C159.249,62.626,163.173,66.552,163.173,71.393z"/>
<circle fill="none" stroke="#FFFFFF" stroke-width="1.4569" stroke-linecap="round" cx="154.408" cy="71.393" r="0.729"/>
<path fill="none" stroke="#FFFFFF" stroke-width="1.4569" stroke-linecap="round" d="M155.138,60.665
	c0,0.402-0.326,0.732-0.73,0.732s-0.729-0.33-0.729-0.732c0-0.4,0.324-0.727,0.729-0.727S155.138,60.265,155.138,60.665z"/>
<line fill="none" stroke="#FFFFFF" stroke-width="1.4569" stroke-linecap="round" x1="265.597" y1="59.15" x2="267.683" y2="59.15"/>
<line fill="none" stroke="#FFFFFF" stroke-width="1.4569" stroke-linecap="round" x1="266.626" y1="80.499" x2="266.626" y2="69.894"/>
<line fill="none" stroke="#FFFFFF" stroke-width="1.4569" stroke-linecap="round" x1="259.748" y1="61.95" x2="273.525" y2="61.95"/>
<path fill="none" stroke="#FFFFFF" stroke-width="1.4569" stroke-linecap="round" d="M273.525,78.819
	c0,1.164-0.719,2.109-1.594,2.109h-10.594c-0.877,0-1.59-0.945-1.59-2.109V67.627c0-1.17,0.713-2.11,1.59-2.11h10.594
	c0.875,0,1.594,0.94,1.594,2.11V78.819z"/>
<path fill="none" stroke="#FFFFFF" stroke-width="1.4569" stroke-linecap="round" d="M199.399,73.833l5.938,6.256
	c0.748,0.792,1.97,0.906,2.739,0.253l9.488-8.012l3.254-5.479c0.771-0.648,0.071-2.563-0.678-3.353l-1.627-1.714
	c-0.75-0.791-2.698-1.663-3.466-1.014l-6.126,2.447l-9.486,8.012C198.663,71.88,198.65,73.041,199.399,73.833"/>
<path fill="none" stroke="#FFFFFF" stroke-width="1.4569" stroke-linecap="round" d="M214.21,64.634
	c0.76-0.641,1.922-0.589,2.598,0.133c0.68,0.711,0.613,1.813-0.143,2.45s-1.922,0.577-2.601-0.14
	C213.388,66.366,213.453,65.267,214.21,64.634"/>
<line fill="none" stroke="#FFFFFF" stroke-width="1.4569" stroke-linecap="round" x1="208.036" y1="76.694" x2="208.036" y2="67.329"/>
<line fill="none" stroke="#FFFFFF" stroke-width="1.4569" stroke-linecap="round" x1="203.073" y1="72.009" x2="212.997" y2="72.009"/>
<line fill="#FFFFFF" stroke="#FFFFFF" stroke-width="1.4569" stroke-linecap="round" x1="313.705" y1="70.047" x2="329.978" y2="62.862"/>
<path fill="#FFFFFF" stroke="#FFFFFF" stroke-width="1.4569" stroke-linecap="round" d="M328.156,62.323
	c0.275-0.746,1.104-1.122,1.846-0.843c0.744,0.276,1.119,1.102,0.844,1.845c-0.279,0.744-1.102,1.122-1.846,0.846
	C328.255,63.896,327.876,63.069,328.156,62.323z"/>
<line fill="#FFFFFF" stroke="#FFFFFF" stroke-width="1.4569" stroke-linecap="round" x1="313.705" y1="69.954" x2="329.978" y2="77.138"/>
<path fill="#FFFFFF" stroke="#FFFFFF" stroke-width="1.4569" stroke-linecap="round" d="M328.156,77.679
	c0.275,0.744,1.104,1.121,1.846,0.842c0.744-0.276,1.119-1.1,0.844-1.843c-0.279-0.747-1.102-1.124-1.846-0.848
	C328.255,76.104,327.876,76.933,328.156,77.679z"/>
<path fill="#FFFFFF" stroke="#FFFFFF" stroke-width="1.4569" stroke-linecap="round" d="M312.361,70.457
	c0.275,0.745,1.102,1.121,1.846,0.843c0.744-0.276,1.119-1.1,0.842-1.844s-1.102-1.123-1.844-0.848
	C312.458,68.882,312.082,69.712,312.361,70.457z"/>
<line fill="none" stroke="#FFFFFF" x1="32.201" y1="65.812" x2="51.801" y2="65.812"/>
<line fill="none" stroke="#FFFFFF" x1="32.201" y1="74.188" x2="51.801" y2="74.188"/>
<rect x="224.011" y="28" opacity="0" fill="#C91E1D" width="28" height="28"/>
<line fill="none" stroke="#595758" stroke-width="1.4569" stroke-linecap="round" x1="247.856" y1="51.847" x2="228.163" y2="32.153"/>
<line fill="none" stroke="#595758" stroke-width="1.4569" stroke-linecap="round" x1="228.163" y1="51.847" x2="247.856" y2="32.153"/>
<rect x="168.009" y="28" opacity="0" fill="#C91E1D" width="28" height="28"/>
<rect x="280.011" y="28" opacity="0" fill="#C91E1D" width="28" height="28"/>
<rect x="308.011" y="28" opacity="0" fill="#C91E1D" width="28" height="28"/>
<polyline fill="none" stroke="#595758" stroke-width="1.4569" stroke-linecap="round" points="192.145,37.997 182.005,47.437 
	171.872,37.997 "/>
<circle opacity="0.2" fill="#231815" cx="294.012" cy="42" r="10.888"/>
<line fill="none" stroke="#FFFFFF" stroke-width="1.6943" stroke-linecap="round" x1="300.289" y1="48.275" x2="287.738" y2="35.725"/>
<line fill="none" stroke="#FFFFFF" stroke-width="1.6943" stroke-linecap="round" x1="287.738" y1="48.275" x2="300.289" y2="35.725"/>
<circle opacity="0.2" fill="#FFFFFF" cx="322.012" cy="42" r="10.888"/>
<line fill="none" stroke="#595758" stroke-width="1.6943" stroke-linecap="round" x1="328.289" y1="48.275" x2="315.738" y2="35.725"/>
<line fill="none" stroke="#595758" stroke-width="1.6943" stroke-linecap="round" x1="315.738" y1="48.275" x2="328.289" y2="35.725"/>
<rect x="252.011" y="28" opacity="0" fill="#C91E1D" width="28" height="28"/>
<line fill="none" stroke="#FFFFFF" stroke-width="1.4569" stroke-linecap="round" x1="275.857" y1="51.847" x2="256.164" y2="32.153"/>
<line fill="none" stroke="#FFFFFF" stroke-width="1.4569" stroke-linecap="round" x1="256.164" y1="51.847" x2="275.857" y2="32.153"/>
<rect x="196.009" y="28" opacity="0" fill="#C91E1D" width="28" height="28"/>
<polyline fill="none" stroke="#FFFFFF" stroke-width="1.4569" stroke-linecap="round" points="220.146,37.997 210.005,47.437 
	199.873,37.997 "/>
</svg>
